<svg width="72" height="72" viewBox="0 0 72 72" fill="none" xmlns="http://www.w3.org/2000/svg">
<g clip-path="url(#clip0)">
<path d="M68.6451 48.512L49.7083 30.3831L51.5006 20.2379C52.0346 20.4308 52.5995 20.5244 53.1672 20.5141L53.1812 20.5137C55.7892 20.4781 57.8746 18.3352 57.8391 15.7271C57.8037 13.1191 55.6606 11.0337 53.0526 11.0692C50.4445 11.1048 48.3592 13.2477 48.3946 15.8557C48.4022 16.4138 48.5086 16.9661 48.709 17.487L37.8963 19.0868L19.751 1.75227C19.5283 1.53635 19.2289 1.41793 18.9187 1.42334C18.6126 1.43274 18.3226 1.56207 18.111 1.78351L14.8871 5.15662C14.4434 5.62364 14.4622 6.3619 14.929 6.80575L16.7548 8.56587C10.1823 21.4202 12.8214 37.0641 23.2473 47.0508C23.3428 47.1377 23.4528 47.2071 23.5723 47.2561C23.5088 47.6526 23.4807 48.0541 23.4884 48.4556L23.8327 61.9846L9.83723 62.3408C6.61837 62.4265 4.07606 65.1016 4.15419 68.3206L4.21355 70.6532C4.22994 71.2973 4.76543 71.8062 5.40952 71.7898L59.0588 70.4245C59.7029 70.4081 60.2118 69.8726 60.1954 69.2285L60.1361 66.8959C60.0504 63.6771 57.3753 61.1348 54.1562 61.2129L40.1607 61.5691L40.0082 55.5732C42.2123 55.9772 44.4522 56.1548 46.6925 56.1033C52.0678 55.9607 57.3235 54.486 61.9882 51.8114L63.8231 53.5655C64.0458 53.7814 64.3453 53.8998 64.6554 53.8944C64.9615 53.885 65.2516 53.7557 65.4632 53.5343L68.6871 50.1612C69.1308 49.6941 69.112 48.9559 68.6451 48.512ZM51.3759 14.2366C52.2661 13.3048 53.7432 13.2713 54.6748 14.1615C55.6066 15.0518 55.6401 16.5288 54.7499 17.4605C54.3237 17.9065 53.7383 18.1656 53.1217 18.1811L53.1147 18.1813C51.8263 18.2074 50.7606 17.1842 50.7345 15.8957C50.722 15.2789 50.9543 14.6825 51.3804 14.2365L51.3759 14.2366ZM48.8255 21.9702L47.6808 28.4449L45.0445 25.9246L48.8255 21.9702ZM47.4504 20.0317L43.358 24.3127L40.0267 21.1297L47.4504 20.0317ZM54.2156 63.5455C56.148 63.4963 57.7543 65.0229 57.8035 66.9553L57.8332 68.1216L6.51645 69.4275L6.48677 68.2612C6.43759 66.3289 7.9642 64.7225 9.89659 64.6733L54.2156 63.5455ZM37.7688 59.2959L37.8282 61.6284L26.1653 61.9252L26.1059 59.5927L37.7688 59.2959ZM26.0466 57.2601L25.821 48.3963C25.749 45.5669 28.3064 43.198 31.5218 43.1162C34.7373 43.0344 37.4119 45.2701 37.4839 48.0995L37.7094 56.9633L26.0466 57.2601ZM39.9476 53.1951L39.8165 48.0401C39.7117 43.9243 35.9644 40.6691 31.4625 40.7836C28.5506 40.8131 25.8665 42.364 24.3869 44.8721C15.2756 35.752 12.9229 21.87 18.5199 10.2571L60.2393 50.1334C54.0393 53.4886 46.8617 54.5715 39.9476 53.1951ZM64.5964 51.0717L62.9111 49.4609L19.0627 7.53733L17.3703 5.92553L18.9787 4.23906L36.7749 21.2475C36.783 21.2473 36.7881 21.2623 36.7964 21.2679L66.2095 49.3851L64.5964 51.0717Z" fill="#212121"/>
<path d="M31.5918 45.4485L31.5813 45.4488C29.6488 45.495 28.1198 47.0991 28.1661 49.0316C28.2123 50.964 29.8164 52.493 31.7489 52.4468L31.7594 52.4465C33.6918 52.4002 35.2208 50.7962 35.1746 48.8637C35.1283 46.9312 33.5242 45.4022 31.5918 45.4485ZM32.5183 49.7535C32.3043 49.9775 32.0098 50.1072 31.7 50.1139C31.0558 50.127 30.523 49.6154 30.51 48.9712C30.5037 48.6628 30.6199 48.3646 30.8329 48.1415C31.0444 47.9201 31.3345 47.7907 31.6406 47.7813C32.2848 47.7683 32.8176 48.2799 32.8306 48.9241C32.8369 49.2325 32.7208 49.5307 32.5078 49.7538L32.5183 49.7535Z" fill="#2196F3"/>
</g>
<defs>
<clipPath id="clip0">
<rect x="0.12085" y="1.90173" width="70" height="70" transform="rotate(-1.45778 0.12085 1.90173)" fill="white"/>
</clipPath>
</defs>
</svg>
